<?xml version="1.0" standalone="no"?>
<!DOCTYPE svg PUBLIC "-//W3C//DTD SVG 20010904//EN"
 "http://www.w3.org/TR/2001/REC-SVG-20010904/DTD/svg10.dtd">
<svg version="1.0" xmlns="http://www.w3.org/2000/svg"
 width="736.000000pt" height="735.000000pt" viewBox="0 0 736.000000 735.000000"
 preserveAspectRatio="xMidYMid meet">

<g transform="translate(0.000000,735.000000) scale(0.100000,-0.100000)"
fill="#000000" stroke="none">
<path d="M0 3675 l0 -3675 3680 0 3680 0 0 3675 0 3675 -3680 0 -3680 0 0
-3675z m3829 1190 c71 -32 140 -100 177 -175 38 -76 45 -192 16 -268 -11 -29
-130 -242 -264 -475 -261 -453 -287 -489 -386 -535 -49 -23 -70 -27 -152 -27
-88 0 -101 3 -162 33 -119 58 -188 166 -196 302 -2 48 2 92 11 122 8 26 77
154 153 285 76 131 187 324 247 428 60 105 128 209 149 232 106 109 267 140
407 78z m533 -923 c76 -34 133 -95 207 -222 198 -337 417 -720 437 -765 50
-108 39 -232 -28 -338 -120 -189 -390 -220 -551 -63 -24 23 -79 105 -126 186
-46 80 -158 273 -249 429 -90 157 -171 303 -179 325 -23 63 -20 180 6 247 37
96 129 184 226 216 59 19 198 11 257 -15z m-602 -801 c70 -37 105 -68 144
-124 143 -211 34 -495 -213 -553 -88 -21 -1015 -20 -1096 1 -276 72 -363 414
-156 608 59 56 123 87 195 96 28 3 282 4 566 1 l515 -5 45 -24z"/>
</g>
</svg>
